<?xml version="1.0" encoding="UTF-8"?>
<!DOCTYPE svg PUBLIC "-//W3C//DTD SVG 1.1//EN" "http://www.w3.org/Graphics/SVG/1.1/DTD/svg11.dtd">
<svg version="1.2" width="141.46mm" height="141.46mm" viewBox="0 0 14146 14146" preserveAspectRatio="xMidYMid" fill-rule="evenodd" stroke-width="28.222" stroke-linejoin="round" xmlns="http://www.w3.org/2000/svg" xmlns:ooo="http://xml.openoffice.org/svg/export" xmlns:xlink="http://www.w3.org/1999/xlink" xmlns:presentation="http://sun.com/xmlns/staroffice/presentation" xmlns:smil="http://www.w3.org/2001/SMIL20/" xmlns:anim="urn:oasis:names:tc:opendocument:xmlns:animation:1.0" xml:space="preserve">
 <defs class="ClipPathGroup">
  <clipPath id="presentation_clip_path" clipPathUnits="userSpaceOnUse">
   <rect x="0" y="0" width="14146" height="14146"/>
  </clipPath>
  <clipPath id="presentation_clip_path_shrink" clipPathUnits="userSpaceOnUse">
   <rect x="14" y="14" width="14118" height="14118"/>
  </clipPath>
 </defs>
 <defs class="TextShapeIndex">
  <g ooo:slide="id1" ooo:id-list="id3"/>
 </defs>
 <defs class="EmbeddedBulletChars">
  <g id="bullet-char-template-57356" transform="scale(0.00048828125,-0.00048828125)">
   <path d="M 580,1141 L 1163,571 580,0 -4,571 580,1141 Z"/>
  </g>
  <g id="bullet-char-template-57354" transform="scale(0.00048828125,-0.00048828125)">
   <path d="M 8,1128 L 1137,1128 1137,0 8,0 8,1128 Z"/>
  </g>
  <g id="bullet-char-template-10146" transform="scale(0.00048828125,-0.00048828125)">
   <path d="M 174,0 L 602,739 174,1481 1456,739 174,0 Z M 1358,739 L 309,1346 659,739 1358,739 Z"/>
  </g>
  <g id="bullet-char-template-10132" transform="scale(0.00048828125,-0.00048828125)">
   <path d="M 2015,739 L 1276,0 717,0 1260,543 174,543 174,936 1260,936 717,1481 1274,1481 2015,739 Z"/>
  </g>
  <g id="bullet-char-template-10007" transform="scale(0.00048828125,-0.00048828125)">
   <path d="M 0,-2 C -7,14 -16,27 -25,37 L 356,567 C 262,823 215,952 215,954 215,979 228,992 255,992 264,992 276,990 289,987 310,991 331,999 354,1012 L 381,999 492,748 772,1049 836,1024 860,1049 C 881,1039 901,1025 922,1006 886,937 835,863 770,784 769,783 710,716 594,584 L 774,223 C 774,196 753,168 711,139 L 727,119 C 717,90 699,76 672,76 641,76 570,178 457,381 L 164,-76 C 142,-110 111,-127 72,-127 30,-127 9,-110 8,-76 1,-67 -2,-52 -2,-32 -2,-23 -1,-13 0,-2 Z"/>
  </g>
  <g id="bullet-char-template-10004" transform="scale(0.00048828125,-0.00048828125)">
   <path d="M 285,-33 C 182,-33 111,30 74,156 52,228 41,333 41,471 41,549 55,616 82,672 116,743 169,778 240,778 293,778 328,747 346,684 L 369,508 C 377,444 397,411 428,410 L 1163,1116 C 1174,1127 1196,1133 1229,1133 1271,1133 1292,1118 1292,1087 L 1292,965 C 1292,929 1282,901 1262,881 L 442,47 C 390,-6 338,-33 285,-33 Z"/>
  </g>
  <g id="bullet-char-template-9679" transform="scale(0.00048828125,-0.00048828125)">
   <path d="M 813,0 C 632,0 489,54 383,161 276,268 223,411 223,592 223,773 276,916 383,1023 489,1130 632,1184 813,1184 992,1184 1136,1130 1245,1023 1353,916 1407,772 1407,592 1407,412 1353,268 1245,161 1136,54 992,0 813,0 Z"/>
  </g>
  <g id="bullet-char-template-8226" transform="scale(0.00048828125,-0.00048828125)">
   <path d="M 346,457 C 273,457 209,483 155,535 101,586 74,649 74,723 74,796 101,859 155,911 209,963 273,989 346,989 419,989 480,963 531,910 582,859 608,796 608,723 608,648 583,586 532,535 482,483 420,457 346,457 Z"/>
  </g>
  <g id="bullet-char-template-8211" transform="scale(0.00048828125,-0.00048828125)">
   <path d="M -4,459 L 1135,459 1135,606 -4,606 -4,459 Z"/>
  </g>
  <g id="bullet-char-template-61548" transform="scale(0.00048828125,-0.00048828125)">
   <path d="M 173,740 C 173,903 231,1043 346,1159 462,1274 601,1332 765,1332 928,1332 1067,1274 1183,1159 1299,1043 1357,903 1357,740 1357,577 1299,437 1183,322 1067,206 928,148 765,148 601,148 462,206 346,322 231,437 173,577 173,740 Z"/>
  </g>
 </defs>
 <defs class="TextEmbeddedBitmaps"/>
 <g>
  <g id="id2" class="Master_Slide">
   <g id="bg-id2" class="Background"/>
   <g id="bo-id2" class="BackgroundObjects"/>
  </g>
 </g>
 <g class="SlideGroup">
  <g>
   <g id="container-id1">
    <g id="id1" class="Slide" clip-path="url(#presentation_clip_path)">
     <g class="Page">
      <g class="Graphic">
       <g id="id3">
        <rect class="BoundingBox" stroke="none" fill="none" x="331" y="294" width="13476" height="13476"/>
        <path fill="none" stroke="rgb(0,0,0)" stroke-width="24" stroke-linejoin="miter" d="M 7712,6335 L 8898,5053"/>
        <path fill="rgb(0,0,0)" stroke="none" d="M 8983,4962 L 8931,5140 8898,5053 8809,5027 8983,4962 Z"/>
        <path fill="none" stroke="rgb(0,0,0)" stroke-width="24" stroke-linejoin="miter" d="M 8983,4962 L 8931,5140 8898,5053 8809,5027 8983,4962 Z"/>
        <path fill="none" stroke="rgb(0,0,0)" stroke-width="24" stroke-linejoin="miter" d="M 6372,6387 L 5090,5201"/>
        <path fill="rgb(0,0,0)" stroke="none" d="M 4998,5117 L 5177,5169 5090,5201 5064,5291 4998,5117 Z"/>
        <path fill="none" stroke="rgb(0,0,0)" stroke-width="24" stroke-linejoin="miter" d="M 4998,5117 L 5177,5169 5090,5201 5064,5291 4998,5117 Z"/>
        <path fill="none" stroke="rgb(0,0,0)" stroke-width="24" stroke-linejoin="miter" d="M 6424,7728 L 5238,9010"/>
        <path fill="rgb(0,0,0)" stroke="none" d="M 5153,9102 L 5205,8923 5238,9010 5327,9036 5153,9102 Z"/>
        <path fill="none" stroke="rgb(0,0,0)" stroke-width="24" stroke-linejoin="miter" d="M 5153,9102 L 5205,8923 5238,9010 5327,9036 5153,9102 Z"/>
        <path fill="none" stroke="rgb(0,0,0)" stroke-width="24" stroke-linejoin="miter" d="M 7765,7676 L 9047,8862"/>
        <path fill="rgb(0,0,0)" stroke="none" d="M 9138,8946 L 8960,8895 9047,8862 9073,8773 9138,8946 Z"/>
        <path fill="none" stroke="rgb(0,0,0)" stroke-width="24" stroke-linejoin="miter" d="M 9138,8946 L 8960,8895 9047,8862 9073,8773 9138,8946 Z"/>
        <path fill="rgb(255,255,255)" stroke="none" d="M 7712,6335 C 7841,6454 7923,6584 7974,6751 8026,6917 8032,7071 7993,7241 7955,7412 7883,7548 7765,7676 7646,7804 7516,7886 7349,7938 7182,7990 7029,7996 6858,7957 6688,7918 6552,7847 6424,7728 6296,7610 6214,7480 6162,7313 6110,7146 6104,6992 6143,6822 6181,6652 6253,6516 6372,6387 6490,6259 6620,6177 6787,6125 6954,6074 7108,6068 7278,6106 7448,6145 7584,6217 7712,6335 L 7712,6335 Z"/>
        <path fill="none" stroke="rgb(0,0,0)" stroke-width="24" stroke-linejoin="miter" d="M 7712,6335 C 7841,6454 7923,6584 7974,6751 8026,6917 8032,7071 7993,7241 7955,7412 7883,7548 7765,7676 7646,7804 7516,7886 7349,7938 7182,7990 7029,7996 6858,7957 6688,7918 6552,7847 6424,7728 6296,7610 6214,7480 6162,7313 6110,7146 6104,6992 6143,6822 6181,6652 6253,6516 6372,6387 6490,6259 6620,6177 6787,6125 6954,6074 7108,6068 7278,6106 7448,6145 7584,6217 7712,6335 L 7712,6335 Z"/>
        <path fill="rgb(255,255,255)" stroke="none" d="M 10498,8912 C 10627,9031 10708,9161 10760,9328 10812,9494 10818,9648 10779,9818 10741,9989 10669,10125 10550,10253 10432,10381 10302,10463 10135,10515 9968,10567 9815,10573 9644,10534 9474,10495 9338,10424 9210,10305 9082,10187 9000,10057 8948,9890 8896,9723 8890,9569 8929,9399 8967,9229 9039,9093 9158,8964 9276,8836 9406,8754 9573,8703 9740,8651 9893,8645 10064,8683 10234,8722 10370,8794 10498,8912 L 10498,8912 Z"/>
        <path fill="none" stroke="rgb(0,0,0)" stroke-width="24" stroke-linejoin="miter" d="M 10498,8912 C 10627,9031 10708,9161 10760,9328 10812,9494 10818,9648 10779,9818 10741,9989 10669,10125 10550,10253 10432,10381 10302,10463 10135,10515 9968,10567 9815,10573 9644,10534 9474,10495 9338,10424 9210,10305 9082,10187 9000,10057 8948,9890 8896,9723 8890,9569 8929,9399 8967,9229 9039,9093 9158,8964 9276,8836 9406,8754 9573,8703 9740,8651 9893,8645 10064,8683 10234,8722 10370,8794 10498,8912 L 10498,8912 Z"/>
        <path fill="rgb(255,255,255)" stroke="none" d="M 5135,9121 C 5264,9240 5346,9370 5397,9536 5449,9703 5455,9857 5416,10027 5378,10198 5306,10334 5188,10462 5069,10590 4939,10672 4772,10724 4605,10775 4452,10781 4281,10743 4111,10704 3975,10633 3847,10514 3719,10395 3637,10265 3585,10099 3533,9932 3527,9778 3566,9608 3604,9437 3676,9301 3795,9173 3913,9045 4043,8963 4210,8911 4377,8860 4530,8854 4701,8892 4871,8931 5007,9002 5135,9121 L 5135,9121 Z"/>
        <path fill="none" stroke="rgb(0,0,0)" stroke-width="24" stroke-linejoin="miter" d="M 5135,9121 C 5264,9240 5346,9370 5397,9536 5449,9703 5455,9857 5416,10027 5378,10198 5306,10334 5188,10462 5069,10590 4939,10672 4772,10724 4605,10775 4452,10781 4281,10743 4111,10704 3975,10633 3847,10514 3719,10395 3637,10265 3585,10099 3533,9932 3527,9778 3566,9608 3604,9437 3676,9301 3795,9173 3913,9045 4043,8963 4210,8911 4377,8860 4530,8854 4701,8892 4871,8931 5007,9002 5135,9121 L 5135,9121 Z"/>
        <path fill="rgb(255,255,255)" stroke="none" d="M 4927,3758 C 5055,3877 5137,4007 5188,4174 5240,4340 5246,4494 5208,4664 5169,4835 5097,4971 4979,5099 4860,5227 4730,5309 4563,5361 4396,5413 4243,5419 4073,5380 3902,5341 3766,5270 3638,5151 3510,5032 3428,4902 3376,4736 3324,4569 3318,4415 3357,4245 3396,4075 3467,3939 3586,3810 3704,3682 3834,3600 4001,3548 4168,3497 4322,3491 4492,3529 4662,3568 4798,3640 4927,3758 L 4927,3758 Z"/>
        <path fill="none" stroke="rgb(0,0,0)" stroke-width="24" stroke-linejoin="miter" d="M 4927,3758 C 5055,3877 5137,4007 5188,4174 5240,4340 5246,4494 5208,4664 5169,4835 5097,4971 4979,5099 4860,5227 4730,5309 4563,5361 4396,5413 4243,5419 4073,5380 3902,5341 3766,5270 3638,5151 3510,5032 3428,4902 3376,4736 3324,4569 3318,4415 3357,4245 3396,4075 3467,3939 3586,3810 3704,3682 3834,3600 4001,3548 4168,3497 4322,3491 4492,3529 4662,3568 4798,3640 4927,3758 L 4927,3758 Z"/>
        <path fill="rgb(255,255,255)" stroke="none" d="M 10289,3549 C 10418,3668 10500,3798 10551,3965 10603,4132 10609,4285 10570,4455 10532,4626 10460,4762 10342,4890 10223,5018 10093,5100 9926,5152 9759,5204 9606,5210 9435,5171 9265,5132 9129,5061 9001,4942 8873,4824 8791,4694 8739,4527 8687,4360 8681,4206 8720,4036 8759,3866 8830,3730 8949,3602 9067,3473 9197,3391 9364,3340 9531,3288 9685,3282 9855,3320 10025,3359 10161,3431 10289,3549 L 10289,3549 Z"/>
        <path fill="none" stroke="rgb(0,0,0)" stroke-width="24" stroke-linejoin="miter" d="M 10289,3549 C 10418,3668 10500,3798 10551,3965 10603,4132 10609,4285 10570,4455 10532,4626 10460,4762 10342,4890 10223,5018 10093,5100 9926,5152 9759,5204 9606,5210 9435,5171 9265,5132 9129,5061 9001,4942 8873,4824 8791,4694 8739,4527 8687,4360 8681,4206 8720,4036 8759,3866 8830,3730 8949,3602 9067,3473 9197,3391 9364,3340 9531,3288 9685,3282 9855,3320 10025,3359 10161,3431 10289,3549 L 10289,3549 Z"/>
       </g>
      </g>
     </g>
    </g>
   </g>
  </g>
 </g>
</svg>